<mxfile host="Electron" modified="2024-10-24T22:56:01.094Z" agent="Mozilla/5.0 (Windows NT 10.0; Win64; x64) AppleWebKit/537.36 (KHTML, like Gecko) draw.io/22.1.2 Chrome/114.0.5735.289 Electron/25.9.4 Safari/537.36" etag="_EbEvmVQK9e9riDIOSk8" version="22.1.2" type="device">
  <diagram name="Page-1" id="58cdce13-f638-feb5-8d6f-7d28b1aa9fa0">
    <mxGraphModel dx="1206" dy="1552" grid="1" gridSize="10" guides="1" tooltips="1" connect="1" arrows="1" fold="1" page="1" pageScale="1" pageWidth="1100" pageHeight="850" background="none" math="0" shadow="0">
      <root>
        <mxCell id="0" />
        <mxCell id="1" parent="0" />
        <mxCell id="X6y1ee8KPJKpvjaCSA1j-1" value="analytic" style="shape=umlActor;html=1;verticalLabelPosition=bottom;verticalAlign=top;align=center;" parent="1" vertex="1">
          <mxGeometry x="80" y="220" width="30" height="60" as="geometry" />
        </mxCell>
        <mxCell id="X6y1ee8KPJKpvjaCSA1j-2" value="check api definition of each service" style="ellipse;whiteSpace=wrap;html=1;" parent="1" vertex="1">
          <mxGeometry x="190" y="240" width="140" height="70" as="geometry" />
        </mxCell>
        <mxCell id="X6y1ee8KPJKpvjaCSA1j-3" value="establish secure connections" style="ellipse;whiteSpace=wrap;html=1;" parent="1" vertex="1">
          <mxGeometry x="630" y="120" width="140" height="70" as="geometry" />
        </mxCell>
        <mxCell id="X6y1ee8KPJKpvjaCSA1j-4" value="obtain a token" style="ellipse;whiteSpace=wrap;html=1;" parent="1" vertex="1">
          <mxGeometry x="510" y="260" width="140" height="70" as="geometry" />
        </mxCell>
        <mxCell id="X6y1ee8KPJKpvjaCSA1j-5" value="authentificate" style="ellipse;whiteSpace=wrap;html=1;" parent="1" vertex="1">
          <mxGeometry x="720" y="270" width="140" height="70" as="geometry" />
        </mxCell>
        <mxCell id="X6y1ee8KPJKpvjaCSA1j-6" value="validate queries" style="ellipse;whiteSpace=wrap;html=1;" parent="1" vertex="1">
          <mxGeometry x="460" y="355" width="140" height="70" as="geometry" />
        </mxCell>
        <mxCell id="X6y1ee8KPJKpvjaCSA1j-7" value="cache response" style="ellipse;whiteSpace=wrap;html=1;" parent="1" vertex="1">
          <mxGeometry x="680" y="440" width="140" height="70" as="geometry" />
        </mxCell>
        <mxCell id="X6y1ee8KPJKpvjaCSA1j-8" value="distribute requests across services" style="ellipse;whiteSpace=wrap;html=1;" parent="1" vertex="1">
          <mxGeometry x="300" y="480" width="170" height="70" as="geometry" />
        </mxCell>
        <mxCell id="X6y1ee8KPJKpvjaCSA1j-9" value="&amp;lt;&amp;lt;include&amp;gt;&amp;gt;" style="edgeStyle=none;html=1;endArrow=open;verticalAlign=bottom;dashed=1;labelBackgroundColor=none;rounded=0;exitX=0;exitY=1;exitDx=0;exitDy=0;entryX=1;entryY=0;entryDx=0;entryDy=0;" parent="1" source="X6y1ee8KPJKpvjaCSA1j-3" target="X6y1ee8KPJKpvjaCSA1j-4" edge="1">
          <mxGeometry width="160" relative="1" as="geometry">
            <mxPoint x="290" y="120" as="sourcePoint" />
            <mxPoint x="450" y="120" as="targetPoint" />
          </mxGeometry>
        </mxCell>
        <mxCell id="X6y1ee8KPJKpvjaCSA1j-10" value="&amp;lt;&amp;lt;include&amp;gt;&amp;gt;" style="edgeStyle=none;html=1;endArrow=open;verticalAlign=bottom;dashed=1;labelBackgroundColor=none;rounded=0;exitX=1;exitY=1;exitDx=0;exitDy=0;entryX=0.5;entryY=0;entryDx=0;entryDy=0;" parent="1" source="X6y1ee8KPJKpvjaCSA1j-3" target="X6y1ee8KPJKpvjaCSA1j-5" edge="1">
          <mxGeometry width="160" relative="1" as="geometry">
            <mxPoint x="810" y="230" as="sourcePoint" />
            <mxPoint x="970" y="230" as="targetPoint" />
          </mxGeometry>
        </mxCell>
        <mxCell id="X6y1ee8KPJKpvjaCSA1j-11" value="&amp;lt;&amp;lt;extend&amp;gt;&amp;gt;" style="edgeStyle=none;html=1;startArrow=open;endArrow=none;startSize=12;verticalAlign=bottom;dashed=1;labelBackgroundColor=none;rounded=0;exitX=1;exitY=0;exitDx=0;exitDy=0;entryX=0.5;entryY=1;entryDx=0;entryDy=0;" parent="1" source="X6y1ee8KPJKpvjaCSA1j-8" target="X6y1ee8KPJKpvjaCSA1j-6" edge="1">
          <mxGeometry width="160" relative="1" as="geometry">
            <mxPoint x="240" y="360" as="sourcePoint" />
            <mxPoint x="400" y="360" as="targetPoint" />
          </mxGeometry>
        </mxCell>
        <mxCell id="X6y1ee8KPJKpvjaCSA1j-12" value="&amp;lt;&amp;lt;extend&amp;gt;&amp;gt;" style="edgeStyle=none;html=1;startArrow=open;endArrow=none;startSize=12;verticalAlign=bottom;dashed=1;labelBackgroundColor=none;rounded=0;exitX=1;exitY=0.5;exitDx=0;exitDy=0;entryX=0;entryY=0.5;entryDx=0;entryDy=0;" parent="1" source="X6y1ee8KPJKpvjaCSA1j-8" target="X6y1ee8KPJKpvjaCSA1j-7" edge="1">
          <mxGeometry width="160" relative="1" as="geometry">
            <mxPoint x="470" y="515" as="sourcePoint" />
            <mxPoint x="630" y="515" as="targetPoint" />
          </mxGeometry>
        </mxCell>
        <mxCell id="X6y1ee8KPJKpvjaCSA1j-14" value="Self-documenting api-gateway" style="shape=umlFrame;whiteSpace=wrap;html=1;pointerEvents=0;width=200;height=30;" parent="1" vertex="1">
          <mxGeometry x="150" y="-10" width="760" height="590" as="geometry" />
        </mxCell>
        <mxCell id="X6y1ee8KPJKpvjaCSA1j-15" value="" style="edgeStyle=none;html=1;endArrow=none;verticalAlign=bottom;rounded=0;exitX=0.5;exitY=0.5;exitDx=0;exitDy=0;exitPerimeter=0;entryX=0;entryY=0.5;entryDx=0;entryDy=0;" parent="1" source="X6y1ee8KPJKpvjaCSA1j-1" target="X6y1ee8KPJKpvjaCSA1j-2" edge="1">
          <mxGeometry width="160" relative="1" as="geometry">
            <mxPoint x="10" y="140" as="sourcePoint" />
            <mxPoint x="170" y="140" as="targetPoint" />
          </mxGeometry>
        </mxCell>
        <mxCell id="X6y1ee8KPJKpvjaCSA1j-16" value="" style="edgeStyle=none;html=1;endArrow=none;verticalAlign=bottom;rounded=0;exitX=0.5;exitY=0.5;exitDx=0;exitDy=0;exitPerimeter=0;entryX=0;entryY=0.5;entryDx=0;entryDy=0;" parent="1" source="X6y1ee8KPJKpvjaCSA1j-1" target="X6y1ee8KPJKpvjaCSA1j-3" edge="1">
          <mxGeometry width="160" relative="1" as="geometry">
            <mxPoint x="200" y="260" as="sourcePoint" />
            <mxPoint x="340" y="150" as="targetPoint" />
          </mxGeometry>
        </mxCell>
        <mxCell id="X6y1ee8KPJKpvjaCSA1j-17" value="" style="edgeStyle=none;html=1;endArrow=none;verticalAlign=bottom;rounded=0;exitX=0.5;exitY=0.5;exitDx=0;exitDy=0;exitPerimeter=0;entryX=0;entryY=1;entryDx=0;entryDy=0;" parent="1" source="X6y1ee8KPJKpvjaCSA1j-18" target="X6y1ee8KPJKpvjaCSA1j-2" edge="1">
          <mxGeometry width="160" relative="1" as="geometry">
            <mxPoint x="-10" y="210" as="sourcePoint" />
            <mxPoint x="150" y="210" as="targetPoint" />
          </mxGeometry>
        </mxCell>
        <mxCell id="X6y1ee8KPJKpvjaCSA1j-18" value="Developer" style="shape=umlActor;html=1;verticalLabelPosition=bottom;verticalAlign=top;align=center;" parent="1" vertex="1">
          <mxGeometry x="72" y="380" width="30" height="60" as="geometry" />
        </mxCell>
        <mxCell id="X6y1ee8KPJKpvjaCSA1j-19" value="" style="edgeStyle=none;html=1;endArrow=none;verticalAlign=bottom;rounded=0;exitX=0.5;exitY=0.5;exitDx=0;exitDy=0;exitPerimeter=0;entryX=0;entryY=0;entryDx=0;entryDy=0;" parent="1" source="X6y1ee8KPJKpvjaCSA1j-18" target="X6y1ee8KPJKpvjaCSA1j-8" edge="1">
          <mxGeometry width="160" relative="1" as="geometry">
            <mxPoint x="10" y="450" as="sourcePoint" />
            <mxPoint x="170" y="450" as="targetPoint" />
          </mxGeometry>
        </mxCell>
        <mxCell id="X6y1ee8KPJKpvjaCSA1j-20" value="" style="edgeStyle=none;html=1;endArrow=none;verticalAlign=bottom;rounded=0;exitX=0.5;exitY=0.5;exitDx=0;exitDy=0;exitPerimeter=0;entryX=0;entryY=0.5;entryDx=0;entryDy=0;" parent="1" source="X6y1ee8KPJKpvjaCSA1j-18" target="X6y1ee8KPJKpvjaCSA1j-3" edge="1">
          <mxGeometry width="160" relative="1" as="geometry">
            <mxPoint y="330" as="sourcePoint" />
            <mxPoint x="160" y="330" as="targetPoint" />
          </mxGeometry>
        </mxCell>
        <mxCell id="X6y1ee8KPJKpvjaCSA1j-21" value="Solution Architect" style="shape=umlActor;html=1;verticalLabelPosition=bottom;verticalAlign=top;align=center;" parent="1" vertex="1">
          <mxGeometry x="550" y="620" width="30" height="60" as="geometry" />
        </mxCell>
        <mxCell id="X6y1ee8KPJKpvjaCSA1j-22" value="" style="edgeStyle=none;html=1;endArrow=none;verticalAlign=bottom;rounded=0;exitX=0.5;exitY=0;exitDx=0;exitDy=0;exitPerimeter=0;entryX=0.5;entryY=1;entryDx=0;entryDy=0;" parent="1" source="X6y1ee8KPJKpvjaCSA1j-21" target="X6y1ee8KPJKpvjaCSA1j-8" edge="1">
          <mxGeometry width="160" relative="1" as="geometry">
            <mxPoint x="430" y="680" as="sourcePoint" />
            <mxPoint x="590" y="680" as="targetPoint" />
          </mxGeometry>
        </mxCell>
        <mxCell id="FAtT0-zb3LDdUQOUTsaM-2" value="" style="edgeStyle=none;html=1;endArrow=none;verticalAlign=bottom;rounded=0;exitX=0.5;exitY=0;exitDx=0;exitDy=0;exitPerimeter=0;entryX=0.5;entryY=1;entryDx=0;entryDy=0;" edge="1" parent="1" source="X6y1ee8KPJKpvjaCSA1j-21" target="X6y1ee8KPJKpvjaCSA1j-3">
          <mxGeometry width="160" relative="1" as="geometry">
            <mxPoint x="460" y="390" as="sourcePoint" />
            <mxPoint x="620" y="390" as="targetPoint" />
          </mxGeometry>
        </mxCell>
      </root>
    </mxGraphModel>
  </diagram>
</mxfile>
